<svg id="Capa_1" data-name="Capa 1" xmlns="http://www.w3.org/2000/svg" viewBox="0 0 512 388">
<g fill="#28a745">
    <path d="M494.11,372.1H476c4.51-35.69-13.19-68.54-43.58-79.47l-46.57-16.75a82.37,82.37,0,0,1,5.61-31.29,36.19,36.19,0,0,0,13.34,2.51,39.35,39.35,0,0,0,4.94-.31c11.81-1.49,24-8.26,35.35-19.58,13.88-13.87,20.43-33.46,23.1-43.9,2.12-8.28,6.28-28.29-.74-35.31s-27-2.86-35.31-.74c-10.44,2.67-30,9.22-43.91,23.1-11.31,11.31-18.08,23.53-19.57,35.34a36.11,36.11,0,0,0,10,30.24,98.14,98.14,0,0,0-7.71,34.57L333.21,257a7.5,7.5,0,0,0-5.07,14.11l99.16,35.68c24.23,8.71,38,35.9,33.53,65.35H358.17l-74-26.64a7.5,7.5,0,1,0-5.08,14.12l34.8,12.52h-31a62.77,62.77,0,0,0-32.1,8.92l-27.67-9.95c21.56-7.66,40.43-26,49.46-51.1a91,91,0,0,0,4.9-21.51l69.73,25.09a7.5,7.5,0,0,0,5.08-14.12l-74.66-26.85a80.19,80.19,0,0,0-5.05-22.17,75.31,75.31,0,0,0-5.5-11.3L294.56,259a7.5,7.5,0,0,0,5.08-14.12l-66-23.73h0c-17.81-6.4-37.36-4.46-55,5.47-17.32,9.73-30.8,26-37.94,45.91-14.86,41.29,2.46,85.47,38.61,98.7l.07,0,.3.11.25.09,1.76.64H122.28c-38.64,0-70.08,35.89-70.08,80a89.24,89.24,0,0,0,8.48,38.19,7.5,7.5,0,1,0,13.54-6.45,74.22,74.22,0,0,1-7-31.74c0-35.84,24.71-65,55.09-65s55.1,29.15,55.1,65-24.72,65-55.1,65A48.8,48.8,0,0,1,94,507.88a7.5,7.5,0,1,0-8.67,12.24,63.75,63.75,0,0,0,36.85,12H437.46a7.5,7.5,0,0,0,0-15H323.69a78.3,78.3,0,0,0,20.9-27h56.93a7.5,7.5,0,0,0,0-15H350a90.11,90.11,0,0,0,3-23c0-26.75-11.58-50.46-29.31-65H494.11c20.22,0,37.92,12.93,47.5,32.14H413a7.5,7.5,0,1,0,0,15h134a75.54,75.54,0,0,1,2.13,17.85c0,35.85-24.71,65-55.09,65H472.44a7.5,7.5,0,1,0,0,15h21.67c38.65,0,70.09-35.89,70.09-80s-31.44-80-70.09-80ZM398.8,181c16.3-16.3,44.49-21.9,55.42-21.9a20.4,20.4,0,0,1,2,.09c.82,8.93-4.37,40-21.81,57.46C421.56,229.49,408.38,234.5,398,231a104.82,104.82,0,0,1,26.14-29.79,7.5,7.5,0,0,0-8.6-12.29,116.64,116.64,0,0,0-29.38,32.35C379.74,210.43,384.26,195.5,398.8,181Zm-244,96.64c5.93-16.48,17-30,31.18-37.92a54,54,0,0,1,26.47-7.23,47.62,47.62,0,0,1,16.13,2.8h0c13.64,4.91,24.3,15.76,30,30.55,5.86,15.17,5.81,32.6-.11,49.08-12.1,33.63-45.2,52.63-73.79,42.35s-42-46-29.9-79.64Zm37.61,174.49c0-26.75-11.58-50.46-29.31-65h60.28l13.43,4.83c-14.68,14.67-24,36.19-24,60.16,0,26.76,11.58,50.47,29.31,65h-79c17.73-14.53,29.31-38.24,29.31-65Zm145.61,0c0,35.84-24.71,65-55.09,65s-55.1-29.16-55.1-65,24.72-65,55.1-65S338,416.25,338,452.09Z" transform="translate(-52.2 -144.09)"/>
    <path d="M423.26,350.9a7.5,7.5,0,1,0,5.08-14.11l-41.63-15a7.5,7.5,0,0,0-5.08,14.12Z" transform="translate(-52.2 -144.09)"/>
    <path d="M519.47,482.57a7.5,7.5,0,0,0-7.5-7.5H453.56a7.5,7.5,0,0,0,0,15H512A7.5,7.5,0,0,0,519.47,482.57Z" transform="translate(-52.2 -144.09)"/>
    <path d="M200.53,345c17.75,0,36.24-14.08,43.82-35.15a56.42,56.42,0,0,0,1.06-36.11c-3.8-11.83-11.79-20.7-21.92-24.34C203,242,178,257.27,168.9,282.67a56.38,56.38,0,0,0-1.06,36.12c3.8,11.82,11.79,20.69,21.92,24.33A31.57,31.57,0,0,0,200.53,345Zm-18.41-30.78c-2.59-8-2.26-17.68.89-26.44,6.28-17.45,22.82-28.79,35.4-24.27,5.8,2.09,10.32,7.35,12.72,14.81,2.58,8,2.26,17.69-.89,26.45-6.28,17.45-22.82,28.79-35.4,24.27C189,326.92,184.52,321.66,182.12,314.19Z" transform="translate(-52.2 -144.09)"/>
    <path d="M282,402.68c-21.73,0-40.09,22.86-40.09,49.93s18.36,49.92,40.09,49.92,40.1-22.86,40.1-49.92-18.36-49.93-40.1-49.93Zm0,84.85c-13.37,0-25.09-16.32-25.09-34.92s11.72-34.93,25.09-34.93,25.1,16.32,25.1,34.93S295.37,487.53,282,487.53Z" transform="translate(-52.2 -144.09)"/>
    <path d="M122.8,502.53c21.74,0,40.1-22.86,40.1-49.92s-18.36-49.93-40.1-49.93-40.09,22.86-40.09,49.93S101.07,502.53,122.8,502.53Zm0-84.85c13.37,0,25.1,16.32,25.1,34.93s-11.73,34.92-25.1,34.92-25.09-16.32-25.09-34.92S109.44,417.68,122.8,417.68Z" transform="translate(-52.2 -144.09)"/>
</g>
</svg>
